<!--?xml version="1.0" standalone="no"?-->
              <svg id="sw-js-blob-svg" viewBox="0 0 100 100" xmlns="http://www.w3.org/2000/svg" version="1.1">
                    <defs> 
                        <linearGradient id="sw-gradient" x1="0" x2="1" y1="1" y2="0">
                            <stop id="stop1" stop-color="rgba(228.372, 110.608, 54.872, 1)" offset="0%"></stop>
                            <stop id="stop2" stop-color="rgba(31, 154.111, 251, 1)" offset="100%"></stop>
                        </linearGradient>
                    </defs>
                <path fill="url(#sw-gradient)" d="M26.5,-32.3C32.1,-26.9,32.8,-16.4,33.1,-7C33.4,2.5,33.3,10.8,30.5,19.3C27.6,27.8,22,36.5,14,40.2C6,43.9,-4.5,42.5,-12.4,38C-20.3,33.4,-25.6,25.6,-29.6,17.6C-33.6,9.6,-36.3,1.4,-35,-6.2C-33.8,-13.8,-28.5,-20.7,-22,-25.9C-15.5,-31.1,-7.7,-34.5,1.4,-36.1C10.5,-37.8,20.9,-37.6,26.5,-32.3Z" width="100%" height="100%" transform="translate(50 50)" stroke-width="0" style="transition: all 0.3s ease 0s;" stroke="url(#sw-gradient)"></path>
              </svg>